<svg id="f6d1d84d-ebb7-4b67-b20e-842a602c7343" data-name="Capa 1" xmlns="http://www.w3.org/2000/svg" viewBox="0 0 367.62 73.98">
  <defs>
    <style>
      .be21efc8-860d-416a-a9e4-2febd2494abf {
        fill: #fff;
      }

      .a8405aaf-c913-40b4-95fc-f84d957111fb {
        fill: #222831;
      }

      .ae7b6146-f19e-4b89-902b-7ccc325a5a2f {
        fill: #d64045;
      }
    </style>
  </defs>
  <title>logo-horizontal</title>
  <path class="be21efc8-860d-416a-a9e4-2febd2494abf" d="M31.57,89.57H18.07a3,3,0,0,1-2.39-.87,4.19,4.19,0,0,1-.74-2.78V20.24a4.2,4.2,0,0,1,.74-2.79,3,3,0,0,1,2.39-.86H56.92a3,3,0,0,1,2.39.86,4.26,4.26,0,0,1,.74,2.79V32.3a4.24,4.24,0,0,1-.74,2.78,3,3,0,0,1-2.39.87H34.71V46.49H49.86a3,3,0,0,1,2.4.86A4.26,4.26,0,0,1,53,50.14V62.3a4.29,4.29,0,0,1-.74,2.79,3,3,0,0,1-2.4.86H34.71v20A4.24,4.24,0,0,1,34,88.7,3,3,0,0,1,31.57,89.57Z" transform="translate(-14.94 -16.59)"/>
  <path class="be21efc8-860d-416a-a9e4-2febd2494abf" d="M110.74,74.85V86.92A4.24,4.24,0,0,1,110,89.7a3,3,0,0,1-2.4.87H70.5a3,3,0,0,1-2.39-.87,4.19,4.19,0,0,1-.74-2.78V74.85a4.19,4.19,0,0,1,.74-2.78,3,3,0,0,1,2.39-.86h8.62V43H90.74v0l0,0L95,46.16l4.16-3.22,0,0v0h0V71.21h8.44a3,3,0,0,1,2.4.86A4.24,4.24,0,0,1,110.74,74.85Z" transform="translate(-14.94 -16.59)"/>
  <path class="be21efc8-860d-416a-a9e4-2febd2494abf" d="M153.06,89.57H139a3,3,0,0,1-2.39-.87,4.19,4.19,0,0,1-.74-2.78V36.15H123a3,3,0,0,1-2.4-.86,4.29,4.29,0,0,1-.74-2.79V20.24a4.26,4.26,0,0,1,.74-2.79,3,3,0,0,1,2.4-.86h46a3,3,0,0,1,2.4.86,4.26,4.26,0,0,1,.74,2.79V32.5a4.29,4.29,0,0,1-.74,2.79,3,3,0,0,1-2.4.86H156.2V85.92a4.24,4.24,0,0,1-.74,2.78A3,3,0,0,1,153.06,89.57Z" transform="translate(-14.94 -16.59)"/>
  <path class="be21efc8-860d-416a-a9e4-2febd2494abf" d="M242.34,16.59h13a3,3,0,0,1,2.4.86,4.26,4.26,0,0,1,.74,2.79V59.56q0,3.25-.22,6a32.3,32.3,0,0,1-1.35,6.54l-4.35,13.79a7.78,7.78,0,0,1-1.27,2.58A2.67,2.67,0,0,1,249,89.57H237.46a4.71,4.71,0,0,1-2.53-.71,3.47,3.47,0,0,1-1.48-2.34l-4-16.52a2.94,2.94,0,0,0-.66-1.37,1.33,1.33,0,0,0-.91-.35h-.79a1.35,1.35,0,0,0-.91.35,2.85,2.85,0,0,0-.65,1.37l-4.1,16.52a4,4,0,0,1-1.3,2.29,3.72,3.72,0,0,1-2.35.76h-11.5a3.25,3.25,0,0,1-2.4-1,5.82,5.82,0,0,1-1.43-2.63l-4.36-14a32.3,32.3,0,0,1-1.35-6.54c-.14-1.86-.22-3.87-.22-6V20.24a4.26,4.26,0,0,1,.74-2.79,3,3,0,0,1,2.4-.86h13.41a3,3,0,0,1,2.4.86,4.26,4.26,0,0,1,.74,2.79v37.3l5-12.78a4.93,4.93,0,0,1,1.83-2.43,5.16,5.16,0,0,1,2.79-.71h3.65a5.21,5.21,0,0,1,2.79.71,5,5,0,0,1,1.83,2.43l5,12.78V20.24a4.26,4.26,0,0,1,.74-2.79A3,3,0,0,1,242.34,16.59Z" transform="translate(-14.94 -16.59)"/>
  <path class="be21efc8-860d-416a-a9e4-2febd2494abf" d="M319,42.5l-7.44-22.57A4.72,4.72,0,0,0,310,17.4a4.49,4.49,0,0,0-2.75-.81H283.79a4.62,4.62,0,0,0-2.82.81,4.73,4.73,0,0,0-1.62,2.53L271.91,42.5h16V38.6A2.57,2.57,0,0,1,290.45,36h10.31a2.58,2.58,0,0,1,2.56,2.57v3.9Z" transform="translate(-14.94 -16.59)"/>
  <path class="be21efc8-860d-416a-a9e4-2febd2494abf" d="M362.87,89.57H348.76a3,3,0,0,1-2.39-.87,4.24,4.24,0,0,1-.74-2.78v-13L332.3,52.16a21.14,21.14,0,0,1-2.65-5.47,27.49,27.49,0,0,1-.66-7V20.24a4.26,4.26,0,0,1,.74-2.79,3,3,0,0,1,2.4-.86h13.41a3,3,0,0,1,2.4.86,4.26,4.26,0,0,1,.74,2.79V36.86c0,.67,0,1.38.08,2.13a4.84,4.84,0,0,0,.7,2.13l4,7.29a3.92,3.92,0,0,0,.91,1.32,1.76,1.76,0,0,0,1.18.41h.87a1.76,1.76,0,0,0,1.17-.41,3.92,3.92,0,0,0,.92-1.32l4-7.29a4.84,4.84,0,0,0,.7-2.13q.09-1.12.09-2.13V20.24a4.2,4.2,0,0,1,.74-2.79,3,3,0,0,1,2.39-.86h13a3,3,0,0,1,2.4.86,4.26,4.26,0,0,1,.74,2.79V39.7a26.26,26.26,0,0,1-.7,7,24.63,24.63,0,0,1-2.61,5.47L366,73V85.92a4.24,4.24,0,0,1-.74,2.78A3,3,0,0,1,362.87,89.57Z" transform="translate(-14.94 -16.59)"/>
  <polygon class="a8405aaf-c913-40b4-95fc-f84d957111fb" points="75.8 19.52 75.84 19.55 75.81 19.55 75.8 19.55 75.8 19.52"/>
  <polygon class="a8405aaf-c913-40b4-95fc-f84d957111fb" points="84.17 19.55 84.21 19.52 84.21 19.55 84.2 19.55 84.17 19.55"/>
  <path class="ae7b6146-f19e-4b89-902b-7ccc325a5a2f" d="M322.55,66.84V85.92a4.24,4.24,0,0,1-.74,2.78,3,3,0,0,1-2.4.87H306.26a3.4,3.4,0,0,1-2.57-.87,3.91,3.91,0,0,1-.82-2.78V76.5h-.09a2.56,2.56,0,0,0-2.51-2.07H290a2.56,2.56,0,0,0-2.51,2.07h-.05v9.42a4.24,4.24,0,0,1-.74,2.78,3,3,0,0,1-2.4.87h-12.8a3,3,0,0,1-2.39-.87,4.19,4.19,0,0,1-.74-2.78V66.84a34.75,34.75,0,0,1,.82-7,86.45,86.45,0,0,1,2.57-9.22l.14-.44h12.88a2.67,2.67,0,0,1,2.66,2.66V61A2.58,2.58,0,0,0,290,63.5h10.26A2.58,2.58,0,0,0,302.83,61V52.84a2.67,2.67,0,0,1,2.66-2.66H319l.14.44a86.45,86.45,0,0,1,2.57,9.22A34.83,34.83,0,0,1,322.55,66.84Z" transform="translate(-14.94 -16.59)"/>
  <path class="ae7b6146-f19e-4b89-902b-7ccc325a5a2f" d="M322.55,85.92v1a2.67,2.67,0,0,1-2.66,2.67h-14.4a2.67,2.67,0,0,1-2.66-2.67V76.5h0v9.42a3.91,3.91,0,0,0,.82,2.78,3.4,3.4,0,0,0,2.57.87h13.15a3,3,0,0,0,2.4-.87A4.24,4.24,0,0,0,322.55,85.92Z" transform="translate(-14.94 -16.59)"/>
  <rect class="ae7b6146-f19e-4b89-902b-7ccc325a5a2f" x="52.43" width="43.37" height="19.55" rx="2.5"/>
  <polygon class="ae7b6146-f19e-4b89-902b-7ccc325a5a2f" points="84.22 19.54 80.01 22.79 75.8 19.54 75.8 13.02 80.01 9.77 84.22 13.02 84.22 19.54"/>
</svg>
